<svg xmlns="http://www.w3.org/2000/svg" xmlns:xlink="http://www.w3.org/1999/xlink" xmlns:lucid="lucid" width="1843" height="1708"><g transform="translate(1355 -553)" lucid:page-tab-id="0_0"><path d="M-1500 500h2500v2000h-2500z" fill="#fff"/><path d="M-1324.75 740.57a6 6 0 0 1 6-6h388a6 6 0 0 1 6 6v228a6 6 0 0 1-6 6h-388a6 6 0 0 1-6-6z" stroke="#3a414a" stroke-width="2" fill="#fff"/><path d="M-1244.75 820.57a6 6 0 0 1 6-6h228a6 6 0 0 1 6 6v48a6 6 0 0 1-6 6h-228a6 6 0 0 1-6-6z" fill="none"/><use xlink:href="#a" transform="matrix(1,0,0,1,-1244.7512539744457,814.5670714652638) translate(62.175564236111114 41.31727430555556)"/><path d="M-1324.75 740.57a6 6 0 0 1 6-6h388a6 6 0 0 1 6 6v228a6 6 0 0 1-6 6h-388a6 6 0 0 1-6-6z" stroke="#3a414a" stroke-width="2" fill="#fff"/><path d="M-1244.75 820.57a6 6 0 0 1 6-6h228a6 6 0 0 1 6 6v48a6 6 0 0 1-6 6h-228a6 6 0 0 1-6-6z" fill="none"/><use xlink:href="#a" transform="matrix(1,0,0,1,-1244.7512539744457,814.5670714652638) translate(62.175564236111114 41.31727430555556)"/><path d="M-748.3 1661.7a6 6 0 0 1 6-6h388a6 6 0 0 1 6 6v228a6 6 0 0 1-6 6h-388a6 6 0 0 1-6-6z" stroke="#3a414a" stroke-width="2" fill="#fff"/><path d="M-668.3 1741.7a6 6 0 0 1 6-6h228a6 6 0 0 1 6 6v48a6 6 0 0 1-6 6h-228a6 6 0 0 1-6-6z" fill="none"/><use xlink:href="#b" transform="matrix(1,0,0,1,-668.2928848541923,1735.6937021182514) translate(38.28776041666667 41.31727430555556)"/><path d="M-748.3 1661.7a6 6 0 0 1 6-6h388a6 6 0 0 1 6 6v228a6 6 0 0 1-6 6h-388a6 6 0 0 1-6-6z" stroke="#3a414a" stroke-width="2" fill="#fff"/><path d="M-668.3 1741.7a6 6 0 0 1 6-6h228a6 6 0 0 1 6 6v48a6 6 0 0 1-6 6h-228a6 6 0 0 1-6-6z" fill="none"/><use xlink:href="#b" transform="matrix(1,0,0,1,-668.2928848541923,1735.6937021182514) translate(38.28776041666667 41.31727430555556)"/><path d="M-230.82 740.57a6 6 0 0 1 6-6h388a6 6 0 0 1 6 6v228a6 6 0 0 1-6 6h-388a6 6 0 0 1-6-6z" stroke="#3a414a" stroke-width="2" fill="#fff"/><path d="M-150.82 820.57a6 6 0 0 1 6-6h228a6 6 0 0 1 6 6v48a6 6 0 0 1-6 6h-228a6 6 0 0 1-6-6z" fill="none"/><use xlink:href="#c" transform="matrix(1,0,0,1,-150.81589098157804,814.5670714652638) translate(39.86002604166667 41.31727430555556)"/><path d="M-230.82 740.57a6 6 0 0 1 6-6h388a6 6 0 0 1 6 6v228a6 6 0 0 1-6 6h-388a6 6 0 0 1-6-6z" stroke="#3a414a" stroke-width="2" fill="#fff"/><path d="M-150.82 820.57a6 6 0 0 1 6-6h228a6 6 0 0 1 6 6v48a6 6 0 0 1-6 6h-228a6 6 0 0 1-6-6z" fill="none"/><use xlink:href="#c" transform="matrix(1,0,0,1,-150.81589098157804,814.5670714652638) translate(39.86002604166667 41.31727430555556)"/><path d="M-1104.1 1280.27a9.72 9.72 0 0 1 10.22 0l197.7 122.08a3.7 3.7 0 0 1 0 6.3l-197.7 122.1a9.72 9.72 0 0 1-10.2 0l-197.7-122.1a3.7 3.7 0 0 1 0-6.3z" stroke="#000" stroke-width="2" fill="#fff"/><use xlink:href="#d" transform="matrix(1,0,0,1,-1301.8837995286603,1282.1129102443258) translate(160.2196267361111 138.20138888888889)"/><path d="M-35.92 1195.78a9.72 9.72 0 0 1 10.2 0L172 1317.86a3.7 3.7 0 0 1 0 6.3l-197.7 122.1a9.72 9.72 0 0 1-10.2 0l-197.7-122.1a3.7 3.7 0 0 1 0-6.3z" stroke="#000" stroke-width="2" fill="#fff"/><use xlink:href="#e" transform="matrix(1,0,0,1,-233.71420925106537,1197.6241978937564) translate(122.15105034722222 138.20138888888889)"/><path d="M-1098.98 1273.32V980.07" stroke="#3a414a" stroke-width="9" fill="none"/><path d="M-1094.5 1278.8l-1-.4-1.13-.32-1.17-.2-1.18-.07-1.2.08-1.16.2-1.14.32-.98.4v-5.6h8.95zM-1094.5 980.18h-8.96v-4.6h8.95z" stroke="#3a414a" stroke-width=".05" fill="#3a414a"/><path d="M-30.82 980.07v208.76" stroke="#3a414a" stroke-width="9" fill="none"/><path d="M-26.34 980.18h-8.95v-4.6h8.96zM-26.34 1194.3l-.98-.4-1.14-.3-1.17-.2-1.2-.07-1.17.06-1.17.2-1.14.3-1 .4v-5.6h8.96z" stroke="#3a414a" stroke-width=".05" fill="#3a414a"/><path d="M-1098.98 1537.7v232a6 6 0 0 0 6 6h339.2" stroke="#3a414a" stroke-width="9" fill="none"/><path d="M-1102.48 1532.6l1.14.33 1.17.2 1.2.06 1.17-.08 1.17-.2 1.14-.3 1-.4v5.6h-8.96v-5.62zM-749.3 1780.17h-4.6v-8.95h4.6z" stroke="#3a414a" stroke-width=".05" fill="#3a414a"/><path d="M-30.82 1453.2v316.5a6 6 0 0 1-6 6H-342.8" stroke="#3a414a" stroke-width="9" fill="none"/><path d="M-34.3 1448.12l1.13.32 1.17.2 1.18.06 1.2-.06 1.16-.2 1.14-.32.98-.4v5.6h-8.95v-5.6zM-342.68 1780.17h-4.6v-8.95h4.6z" stroke="#3a414a" stroke-width=".05" fill="#3a414a"/><path d="M-1238.25 731.07v-50.3" stroke="#3a414a" stroke-width="5" fill="none"/><path d="M-1235.77 733.57h-4.95V731h4.95z" stroke="#3a414a" stroke-width=".05" fill="#3a414a"/><path d="M-1238.25 652.42l-14.85 14.85 14.85 14.85 14.85-14.85z" stroke="#3a414a" stroke-width="5" fill="#3a414a"/><path d="M-1124.75 731.07v-65.8" stroke="#3a414a" stroke-width="5" fill="none"/><path d="M-1122.28 733.57h-4.95V731h4.95z" stroke="#3a414a" stroke-width=".05" fill="#3a414a"/><path d="M-1124.75 636.94l-14.85 14.85 14.85 14.84 14.85-14.85z" stroke="#3a414a" stroke-width="5" fill="#fff"/><path d="M-1307.4 595.5a6 6 0 0 1 6-6h120.38a6 6 0 0 1 6 6v48a6 6 0 0 1-6 6h-120.4a6 6 0 0 1-6-6z" fill="none"/><use xlink:href="#f" transform="matrix(1,0,0,1,-1307.409158932227,589.4937342880622) translate(-6.084635416666671 39.700520833333336)"/><path d="M-1145.98 587.45a6 6 0 0 1 6-6h76.92a6 6 0 0 1 6 6v39.95a6 6 0 0 1-6 6h-76.92a6 6 0 0 1-6-6z" fill="none"/><use xlink:href="#g" transform="matrix(1,0,0,1,-1145.9779241486406,581.4480215055742) translate(3.542968749999993 35.700520833333336)"/><path d="M-1004.15 731.07v-31.43" stroke="#3a414a" stroke-width="5" fill="none"/><path d="M-1001.67 733.57h-4.95V731h4.95z" stroke="#3a414a" stroke-width=".05" fill="#3a414a"/><path d="M-1004.15 671.3l-14.85 14.85 14.85 14.85 14.85-14.85z" stroke="#3a414a" stroke-width="5" fill="#fff"/><path d="M-1066.04 625a6 6 0 0 1 6-6h136.82a6 6 0 0 1 6 6v48a6 6 0 0 1-6 6h-136.82a6 6 0 0 1-6-6z" fill="none"/><use xlink:href="#h" transform="matrix(1,0,0,1,-1066.037775457588,618.9946811571847) translate(-2.4140625 39.700520833333336)"/><path d="M-693.6 1899.2v78.42" stroke="#3a414a" stroke-width="5" fill="none"/><path d="M-691.13 1899.26h-4.95v-2.57h4.95z" stroke="#3a414a" stroke-width=".05" fill="#3a414a"/><path d="M-693.6 2005.96l14.85-14.85-14.86-14.84-14.85 14.85z" stroke="#3a414a" stroke-width="5" fill="#fff"/><path d="M-815.6 2025.48a6 6 0 0 1 6-6h228a6 6 0 0 1 6 6v48a6 6 0 0 1-6 6h-228a6 6 0 0 1-6-6z" fill="none"/><use xlink:href="#i" transform="matrix(1,0,0,1,-815.6039004707465,2019.4788164088768) translate(46.249999999999986 39.700520833333336)"/><path d="M-548.3 1899.2v185.25" stroke="#3a414a" stroke-width="5" fill="none"/><path d="M-545.82 1899.26h-4.95v-2.57h4.95z" stroke="#3a414a" stroke-width=".05" fill="#3a414a"/><path d="M-533.3 2116.95v-30h-30v30z" stroke="#3a414a" stroke-width="5" fill="#3a414a"/><path d="M-657.66 2136.78a6 6 0 0 1 6-6h228a6 6 0 0 1 6 6v48a6 6 0 0 1-6 6h-228a6 6 0 0 1-6-6z" fill="none"/><use xlink:href="#j" transform="matrix(1,0,0,1,-657.6570275722931,2130.774714189643) translate(25.55989583333333 39.700520833333336)"/><path d="M-377.7 1899.2v82.62" stroke="#3a414a" stroke-width="5" fill="none"/><path d="M-375.24 1899.26h-4.95v-2.57h4.96z" stroke="#3a414a" stroke-width=".05" fill="#3a414a"/><path d="M-362.7 2014.32v-30h-30v30z" stroke="#3a414a" stroke-width="5" fill="#3a414a"/><path d="M-485.7 2030.8a6 6 0 0 1 6-6h227.98a6 6 0 0 1 6 6v48a6 6 0 0 1-6 6h-228a6 6 0 0 1-6-6z" fill="none"/><use xlink:href="#f" transform="matrix(1,0,0,1,-485.7148621385338,2024.7901815736373) translate(47.41536458333333 39.700520833333336)"/><path d="M-161.66 731.07v-50.3M-161.66 731v2.57" stroke="#3a414a" stroke-width="5" fill="none"/><path d="M-161.66 652.42l-14.84 14.85 14.84 14.85 14.85-14.85z" stroke="#3a414a" stroke-width="5" fill="#3a414a"/><path d="M-48.16 731.07v-65.8M-48.16 731v2.57" stroke="#3a414a" stroke-width="5" fill="none"/><path d="M-48.16 636.94L-63 651.8l14.84 14.84 14.85-14.85z" stroke="#3a414a" stroke-width="5" fill="#fff"/><path d="M-230.82 595.5a6 6 0 0 1 6-6h120.4a6 6 0 0 1 6 6v48a6 6 0 0 1-6 6h-120.4a6 6 0 0 1-6-6z" fill="none"/><use xlink:href="#j" transform="matrix(1,0,0,1,-230.81589098157804,589.4937342880622) translate(-27.94010416666667 39.700520833333336)"/><path d="M-69.39 587.45a6 6 0 0 1 6.02-6h76.92a6 6 0 0 1 6 6v39.95a6 6 0 0 1-6 6H-63.4a6 6 0 0 1-6-6z" fill="none"/><use xlink:href="#g" transform="matrix(1,0,0,1,-69.3846561979916,581.4480215055742) translate(3.542968749999993 35.700520833333336)"/><path d="M72.45 731.07v-31.43M72.45 731v2.57" stroke="#3a414a" stroke-width="5" fill="none"/><path d="M72.45 671.3L57.6 686.15 72.45 701l14.85-14.85z" stroke="#3a414a" stroke-width="5" fill="#fff"/><path d="M10.55 625a6 6 0 0 1 6-6h136.82a6 6 0 0 1 6 6v48a6 6 0 0 1-6 6H16.57a6 6 0 0 1-6.02-6z" fill="none"/><use xlink:href="#k" transform="matrix(1,0,0,1,10.555492493061024,618.9946811571847) translate(21.472656249999986 39.700520833333336)"/><path d="M172.68 822.56h54.85" stroke="#3a414a" stroke-width="5" fill="none"/><path d="M172.75 825.03h-2.57v-4.95h2.57z" stroke="#3a414a" stroke-width=".05" fill="#3a414a"/><path d="M255.87 822.56l-14.85-14.85-14.85 14.86 14.85 14.85z" stroke="#3a414a" stroke-width="5" fill="#fff"/><path d="M265.37 782.56a6 6 0 0 1 6-6h228a6 6 0 0 1 6 6v48a6 6 0 0 1-6 6h-228a6 6 0 0 1-6-6z" fill="none"/><use xlink:href="#l" transform="matrix(1,0,0,1,265.36583725621995,776.5635507733689) translate(41.99869791666667 39.700520833333336)"/><path d="M-234.32 767.67h-64.2" stroke="#3a414a" stroke-width="5" fill="none"/><path d="M-231.82 770.14h-2.56v-4.95h2.56z" stroke="#3a414a" stroke-width=".05" fill="#3a414a"/><path d="M-326.86 767.67l14.85 14.85 14.84-14.85-14.85-14.85z" stroke="#3a414a" stroke-width="5" fill="#fff"/><path d="M-549.4 740.57a6 6 0 0 1 6-6h228a6 6 0 0 1 6 6v48a6 6 0 0 1-6 6h-228a6 6 0 0 1-6-6z" fill="none"/><use xlink:href="#m" transform="matrix(1,0,0,1,-549.3846561979916,734.5670714652638) translate(30.045572916666657 39.700520833333336)"/><path d="M-668.3 2196.78a6 6 0 0 1 6-6h228a6 6 0 0 1 6 6v48a6 6 0 0 1-6 6h-228a6 6 0 0 1-6-6z" fill="none"/><use xlink:href="#n" transform="matrix(1,0,0,1,-668.2928848541923,2190.774714189643) translate(59.64843749999999 39.700520833333336)"/><use xlink:href="#o" transform="matrix(1,0,0,1,-668.2928848541923,2190.774714189643) translate(111.328125 39.700520833333336)"/><use xlink:href="#p" transform="matrix(1,0,0,1,-668.2928848541923,2190.774714189643) translate(133.84114583333334 39.700520833333336)"/><path d="M-485.7 2071.46a6 6 0 0 1 6-6h227.98a6 6 0 0 1 6 6v48a6 6 0 0 1-6 6h-228a6 6 0 0 1-6-6z" fill="none"/><use xlink:href="#n" transform="matrix(1,0,0,1,-485.7148621385338,2065.463349024882) translate(59.64843749999999 39.700520833333336)"/><use xlink:href="#o" transform="matrix(1,0,0,1,-485.7148621385338,2065.463349024882) translate(111.328125 39.700520833333336)"/><use xlink:href="#p" transform="matrix(1,0,0,1,-485.7148621385338,2065.463349024882) translate(133.84114583333334 39.700520833333336)"/><path d="M-309.4 565a6 6 0 0 1 6-6h228a6 6 0 0 1 6.02 6v48a6 6 0 0 1-6 6h-228a6 6 0 0 1-6-6z" fill="none"/><use xlink:href="#q" transform="matrix(1,0,0,1,-309.3846561979916,558.9946811571847) translate(91.47786458333333 39.700520833333336)"/><path d="M-1367.42 569.74a6 6 0 0 1 6-6h228a6 6 0 0 1 6 6v38.5a6 6 0 0 1-6 6h-228a6 6 0 0 1-6-6z" fill="none"/><use xlink:href="#q" transform="matrix(1,0,0,1,-1367.4182918628107,563.7358405313571) translate(91.47786458333333 35.200520833333336)"/><path d="M-1337.43 999.82a6 6 0 0 1 6-6h228a6 6 0 0 1 6 6v48a6 6 0 0 1-6 6h-228a6 6 0 0 1-6-6z" fill="none"/><use xlink:href="#r" transform="matrix(1,0,0,1,-1337.428379287156,993.8238063214526) translate(69.736328125 44.55078125)"/><path d="M-985.55 1687.6a6 6 0 0 1 6-6h228a6 6 0 0 1 6 6v48a6 6 0 0 1-6 6h-228a6 6 0 0 1-6-6z" fill="none"/><use xlink:href="#s" transform="matrix(1,0,0,1,-985.5467383994627,1681.5924680564895) translate(82.44140625 44.55078125)"/><path d="M-397.74 1707.6a6 6 0 0 1 6-6h228a6 6 0 0 1 6 6v48a6 6 0 0 1-6 6h-228a6 6 0 0 1-6-6z" fill="none"/><g><use xlink:href="#s" transform="matrix(1,0,0,1,-397.7444519166115,1701.5857431069264) translate(82.44140625 44.55078125)"/></g><path d="M-69.86 1007.82a6 6 0 0 1 6-6h228a6 6 0 0 1 6 6v48a6 6 0 0 1-6 6h-228a6 6 0 0 1-6-6z" fill="none"/><g><use xlink:href="#r" transform="matrix(1,0,0,1,-69.85474108944254,1001.8211163416274) translate(69.736328125 44.55078125)"/></g><defs><path d="M750 21c-371 0-615-218-615-544v-967h305v942c0 174 123 299 310 299s309-125 309-299v-942h306v967c0 326-247 544-615 544" id="t"/><path d="M75-1237v-253h1217v253H837V0H531v-1237H75" id="u"/><path d="M135 0v-1490h997v253H440v360h640v249H440v375h694V0H135" id="v"/><path d="M135 0v-1490h340l471 754c59 97 122 210 187 365-32-387-14-721-19-1119h312V0h-341C855-382 627-689 427-1113c32 420 16 695 20 1113H135" id="w"/><path d="M440-1490V0H135v-1490h305" id="x"/><g id="a"><use transform="matrix(0.015190972222222224,0,0,0.015190972222222224,0,0)" xlink:href="#t"/><use transform="matrix(0.015190972222222224,0,0,0.015190972222222224,22.771267361111114,0)" xlink:href="#u"/><use transform="matrix(0.015190972222222224,0,0,0.015190972222222224,43.53732638888889,0)" xlink:href="#v"/><use transform="matrix(0.015190972222222224,0,0,0.015190972222222224,62.43489583333334,0)" xlink:href="#w"/><use transform="matrix(0.015190972222222224,0,0,0.015190972222222224,86.14800347222223,0)" xlink:href="#u"/><use transform="matrix(0.015190972222222224,0,0,0.015190972222222224,106.9140625,0)" xlink:href="#x"/></g><path d="M786 20C389 20 94-260 94-744c0-487 299-766 692-766 339 0 597 194 641 529h-309c-28-162-156-258-326-258-233 0-388 179-388 495 0 323 157 493 387 493 170 0 298-97 328-259h309c-34 277-266 530-642 530" id="y"/><path d="M49 0l509-1490h400L1480 0h-339l-115-346H497L386 0H49zm524-585h374c-75-213-124-402-192-666-66 268-110 453-182 666" id="z"/><path d="M135 0v-1490h581c339 0 533 192 533 485 0 204-94 351-264 424L1302 0H964L680-532H440V0H135zm305-779h220c186 0 274-77 274-226 0-150-88-233-275-233H440v459" id="A"/><path d="M135 0v-1490h305v1237h643V0H135" id="B"/><path d="M789 20C394 20 94-260 94-744c0-487 300-766 695-766s695 279 695 766c0 485-300 764-695 764zm0-271c231 0 385-174 385-493 0-321-154-495-385-495s-385 175-385 495c0 319 154 493 385 493" id="C"/><g id="b"><use transform="matrix(0.015190972222222224,0,0,0.015190972222222224,0,0)" xlink:href="#y"/><use transform="matrix(0.015190972222222224,0,0,0.015190972222222224,22.163628472222225,0)" xlink:href="#z"/><use transform="matrix(0.015190972222222224,0,0,0.015190972222222224,45.390625,0)" xlink:href="#A"/><use transform="matrix(0.015190972222222224,0,0,0.015190972222222224,65.82248263888889,0)" xlink:href="#A"/><use transform="matrix(0.015190972222222224,0,0,0.015190972222222224,86.25434027777777,0)" xlink:href="#v"/><use transform="matrix(0.015190972222222224,0,0,0.015190972222222224,105.15190972222221,0)" xlink:href="#B"/><use transform="matrix(0.015190972222222224,0,0,0.015190972222222224,122.74305555555554,0)" xlink:href="#B"/><use transform="matrix(0.015190972222222224,0,0,0.015190972222222224,139.453125,0)" xlink:href="#C"/></g><path d="M135 0v-1490h581c339 0 533 210 533 503 0 295-197 500-540 500H440V0H135zm305-733h220c186 0 274-104 274-254s-88-251-275-251H440v505" id="D"/><path d="M659 0H135v-1490h529c448 0 721 280 721 744 0 466-273 746-726 746zM440-263h204c287 0 437-148 437-483 0-333-150-481-435-481H440v964" id="E"/><g id="c"><use transform="matrix(0.015190972222222224,0,0,0.015190972222222224,0,0)" xlink:href="#D"/><use transform="matrix(0.015190972222222224,0,0,0.015190972222222224,20.15842013888889,0)" xlink:href="#A"/><use transform="matrix(0.015190972222222224,0,0,0.015190972222222224,40.59027777777778,0)" xlink:href="#C"/><use transform="matrix(0.015190972222222224,0,0,0.015190972222222224,64.56163194444444,0)" xlink:href="#E"/><use transform="matrix(0.015190972222222224,0,0,0.015190972222222224,87.02907986111111,0)" xlink:href="#C"/><use transform="matrix(0.015190972222222224,0,0,0.015190972222222224,110.01302083333334,0)" xlink:href="#u"/><use transform="matrix(0.015190972222222224,0,0,0.015190972222222224,130.77907986111111,0)" xlink:href="#u"/><use transform="matrix(0.015190972222222224,0,0,0.015190972222222224,151.54513888888889,0)" xlink:href="#x"/></g><g id="d"><use transform="matrix(0.015190972222222224,0,0,0.015190972222222224,0,0)" xlink:href="#y"/><use transform="matrix(0.015190972222222224,0,0,0.015190972222222224,23.014322916666668,0)" xlink:href="#A"/><use transform="matrix(0.015190972222222224,0,0,0.015190972222222224,43.44618055555556,0)" xlink:href="#v"/><use transform="matrix(0.015190972222222224,0,0,0.015190972222222224,62.34375000000001,0)" xlink:href="#z"/></g><g id="e"><use transform="matrix(0.015190972222222224,0,0,0.015190972222222224,0,0)" xlink:href="#y"/><use transform="matrix(0.015190972222222224,0,0,0.015190972222222224,23.014322916666668,0)" xlink:href="#C"/><use transform="matrix(0.015190972222222224,0,0,0.015190972222222224,46.985677083333336,0)" xlink:href="#w"/><use transform="matrix(0.015190972222222224,0,0,0.015190972222222224,70.69878472222223,0)" xlink:href="#u"/><use transform="matrix(0.015190972222222224,0,0,0.015190972222222224,91.46484375,0)" xlink:href="#x"/><use transform="matrix(0.015190972222222224,0,0,0.015190972222222224,100.19965277777777,0)" xlink:href="#v"/><use transform="matrix(0.015190972222222224,0,0,0.015190972222222224,119.09722222222221,0)" xlink:href="#w"/><use transform="matrix(0.015190972222222224,0,0,0.015190972222222224,142.81032986111111,0)" xlink:href="#v"/></g><path d="M975 0v231H0V0h975" id="F"/><g id="f"><use transform="matrix(0.013020833333333334,0,0,0.013020833333333334,0,0)" xlink:href="#x"/><use transform="matrix(0.013020833333333334,0,0,0.013020833333333334,7.486979166666667,0)" xlink:href="#E"/><use transform="matrix(0.013020833333333334,0,0,0.013020833333333334,25.690104166666668,0)" xlink:href="#F"/><use transform="matrix(0.013020833333333334,0,0,0.013020833333333334,37.33072916666667,0)" xlink:href="#t"/><use transform="matrix(0.013020833333333334,0,0,0.013020833333333334,56.84895833333335,0)" xlink:href="#u"/><use transform="matrix(0.013020833333333334,0,0,0.013020833333333334,74.64843750000001,0)" xlink:href="#v"/><use transform="matrix(0.013020833333333334,0,0,0.013020833333333334,90.84635416666669,0)" xlink:href="#w"/><use transform="matrix(0.013020833333333334,0,0,0.013020833333333334,111.17187500000003,0)" xlink:href="#u"/><use transform="matrix(0.013020833333333334,0,0,0.013020833333333334,128.97135416666669,0)" xlink:href="#v"/></g><path d="M135 0v-1490h468l242 684c30 94 76 293 111 455 34-161 80-360 110-455l238-684h470V0h-307c0-447-3-765 11-1227-122 503-246 788-395 1227H826C676-435 552-717 427-1215c15 453 11 775 11 1215H135" id="G"/><g id="g"><use transform="matrix(0.013020833333333334,0,0,0.013020833333333334,0,0)" xlink:href="#w"/><use transform="matrix(0.013020833333333334,0,0,0.013020833333333334,20.325520833333336,0)" xlink:href="#C"/><use transform="matrix(0.013020833333333334,0,0,0.013020833333333334,40.872395833333336,0)" xlink:href="#G"/><use transform="matrix(0.013020833333333334,0,0,0.013020833333333334,65.71614583333334,0)" xlink:href="#v"/></g><path d="M681 22C323 22 94-145 85-462h297c10 151 131 226 296 226 163 0 271-77 271-190 0-102-95-149-257-189l-164-41c-252-61-403-188-403-405 0-269 236-449 560-449 330 0 546 183 551 445H941c-11-119-106-188-259-188-156 0-244 72-244 172-3 156 226 185 373 221 250 61 445 186 445 436 0 271-213 446-575 446" id="H"/><path d="M449 0L49-1490h333c89 395 194 758 253 1185 65-426 176-790 269-1185h317c93 394 201 758 268 1181 60-425 164-788 253-1181h334L1675 0h-348c-90-376-204-711-266-1118C1004-714 886-373 798 0H449" id="I"/><g id="h"><use transform="matrix(0.013020833333333334,0,0,0.013020833333333334,0,0)" xlink:href="#D"/><use transform="matrix(0.013020833333333334,0,0,0.013020833333333334,15.065104166666668,0)" xlink:href="#z"/><use transform="matrix(0.013020833333333334,0,0,0.013020833333333334,34.5703125,0)" xlink:href="#H"/><use transform="matrix(0.013020833333333334,0,0,0.013020833333333334,52.03125,0)" xlink:href="#H"/><use transform="matrix(0.013020833333333334,0,0,0.013020833333333334,69.4921875,0)" xlink:href="#I"/><use transform="matrix(0.013020833333333334,0,0,0.013020833333333334,96.51041666666666,0)" xlink:href="#C"/><use transform="matrix(0.013020833333333334,0,0,0.013020833333333334,117.05729166666664,0)" xlink:href="#A"/><use transform="matrix(0.013020833333333334,0,0,0.013020833333333334,134.5703125,0)" xlink:href="#E"/></g><path d="M789 20C394 20 94-260 94-744c0-487 300-766 695-766s695 279 695 766c0 264-89 467-233 597l215 271h-285L1058-29C976 3 886 20 789 20zm-94-532h261l108 139c70-83 110-208 110-371 0-321-154-495-385-495s-385 175-385 495c0 356 184 537 481 482" id="J"/><path d="M233-870l-31-620h289l-30 620H233" id="K"/><g id="i"><use transform="matrix(0.013020833333333334,0,0,0.013020833333333334,0,0)" xlink:href="#J"/><use transform="matrix(0.013020833333333334,0,0,0.013020833333333334,20.716145833333336,0)" xlink:href="#t"/><use transform="matrix(0.013020833333333334,0,0,0.013020833333333334,39.71354166666667,0)" xlink:href="#z"/><use transform="matrix(0.013020833333333334,0,0,0.013020833333333334,59.62239583333335,0)" xlink:href="#w"/><use transform="matrix(0.013020833333333334,0,0,0.013020833333333334,79.94791666666669,0)" xlink:href="#u"/><use transform="matrix(0.013020833333333334,0,0,0.013020833333333334,97.74739583333336,0)" xlink:href="#x"/><use transform="matrix(0.013020833333333334,0,0,0.013020833333333334,105.23437500000003,0)" xlink:href="#u"/><use transform="matrix(0.013020833333333334,0,0,0.013020833333333334,120.66406250000003,0)" xlink:href="#z"/><use transform="matrix(0.013020833333333334,0,0,0.013020833333333334,138.46354166666669,0)" xlink:href="#K"/></g><g id="j"><use transform="matrix(0.013020833333333334,0,0,0.013020833333333334,0,0)" xlink:href="#x"/><use transform="matrix(0.013020833333333334,0,0,0.013020833333333334,7.486979166666667,0)" xlink:href="#E"/><use transform="matrix(0.013020833333333334,0,0,0.013020833333333334,25.690104166666668,0)" xlink:href="#F"/><use transform="matrix(0.013020833333333334,0,0,0.013020833333333334,39.28385416666667,0)" xlink:href="#D"/><use transform="matrix(0.013020833333333334,0,0,0.013020833333333334,56.5625,0)" xlink:href="#A"/><use transform="matrix(0.013020833333333334,0,0,0.013020833333333334,74.07552083333334,0)" xlink:href="#C"/><use transform="matrix(0.013020833333333334,0,0,0.013020833333333334,94.62239583333334,0)" xlink:href="#E"/><use transform="matrix(0.013020833333333334,0,0,0.013020833333333334,113.88020833333334,0)" xlink:href="#C"/><use transform="matrix(0.013020833333333334,0,0,0.013020833333333334,133.58072916666669,0)" xlink:href="#u"/><use transform="matrix(0.013020833333333334,0,0,0.013020833333333334,151.38020833333334,0)" xlink:href="#u"/><use transform="matrix(0.013020833333333334,0,0,0.013020833333333334,168.33333333333334,0)" xlink:href="#C"/></g><path d="M115 0v-183l604-853c49-68 106-137 165-205-253 8-513 2-772 4v-253h1133v184L652-468c-53 73-113 147-176 220 253-10 513-3 772-5V0H115" id="L"/><g id="k"><use transform="matrix(0.013020833333333334,0,0,0.013020833333333334,0,0)" xlink:href="#D"/><use transform="matrix(0.013020833333333334,0,0,0.013020833333333334,17.278645833333336,0)" xlink:href="#A"/><use transform="matrix(0.013020833333333334,0,0,0.013020833333333334,34.79166666666667,0)" xlink:href="#v"/><use transform="matrix(0.013020833333333334,0,0,0.013020833333333334,50.98958333333334,0)" xlink:href="#L"/><use transform="matrix(0.013020833333333334,0,0,0.013020833333333334,68.69791666666669,0)" xlink:href="#L"/><use transform="matrix(0.013020833333333334,0,0,0.013020833333333334,85.50781250000003,0)" xlink:href="#C"/></g><path d="M795 20C377 20 94-272 94-743c0-483 302-767 694-767 335 0 593 206 635 500h-310c-42-142-154-229-320-229-230 0-389 177-389 493s154 495 393 495c212 0 340-120 345-311H818v-232h620v186c0 391-269 628-643 628" id="M"/><g id="l"><use transform="matrix(0.013020833333333334,0,0,0.013020833333333334,0,0)" xlink:href="#y"/><use transform="matrix(0.013020833333333334,0,0,0.013020833333333334,18.997395833333332,0)" xlink:href="#z"/><use transform="matrix(0.013020833333333334,0,0,0.013020833333333334,36.53645833333333,0)" xlink:href="#u"/><use transform="matrix(0.013020833333333334,0,0,0.013020833333333334,54.3359375,0)" xlink:href="#v"/><use transform="matrix(0.013020833333333334,0,0,0.013020833333333334,70.53385416666667,0)" xlink:href="#M"/><use transform="matrix(0.013020833333333334,0,0,0.013020833333333334,90.546875,0)" xlink:href="#C"/><use transform="matrix(0.013020833333333334,0,0,0.013020833333333334,111.09375,0)" xlink:href="#A"/><use transform="matrix(0.013020833333333334,0,0,0.013020833333333334,128.60677083333334,0)" xlink:href="#x"/><use transform="matrix(0.013020833333333334,0,0,0.013020833333333334,136.09375,0)" xlink:href="#z"/></g><g id="m"><use transform="matrix(0.013020833333333334,0,0,0.013020833333333334,0,0)" xlink:href="#E"/><use transform="matrix(0.013020833333333334,0,0,0.013020833333333334,19.2578125,0)" xlink:href="#v"/><use transform="matrix(0.013020833333333334,0,0,0.013020833333333334,35.45572916666667,0)" xlink:href="#H"/><use transform="matrix(0.013020833333333334,0,0,0.013020833333333334,52.91666666666667,0)" xlink:href="#y"/><use transform="matrix(0.013020833333333334,0,0,0.013020833333333334,72.64322916666667,0)" xlink:href="#A"/><use transform="matrix(0.013020833333333334,0,0,0.013020833333333334,90.15625,0)" xlink:href="#x"/><use transform="matrix(0.013020833333333334,0,0,0.013020833333333334,97.64322916666667,0)" xlink:href="#L"/><use transform="matrix(0.013020833333333334,0,0,0.013020833333333334,115.3515625,0)" xlink:href="#x"/><use transform="matrix(0.013020833333333334,0,0,0.013020833333333334,122.83854166666667,0)" xlink:href="#C"/><use transform="matrix(0.013020833333333334,0,0,0.013020833333333334,143.38541666666669,0)" xlink:href="#w"/><use transform="matrix(0.013020833333333334,0,0,0.013020833333333334,163.71093750000003,0)" xlink:href="#v"/></g><path d="M169-607c0-330 107-732 258-974h279c-145 311-231 674-231 974 0 262 67 512 231 886H427C258-1 169-307 169-607" id="N"/><path d="M135 0v-1490h980v253H440v416h609v249H440V0H135" id="O"/><path d="M135 0v-1490h305c1 251 0 501-5 746 157-254 405-512 598-746h373L849-845 1422 0h-361L638-644 440-426V0H135" id="P"/><g id="n"><use transform="matrix(0.013020833333333334,0,0,0.013020833333333334,0,0)" xlink:href="#N"/><use transform="matrix(0.013020833333333334,0,0,0.013020833333333334,10.533854166666668,0)" xlink:href="#O"/><use transform="matrix(0.013020833333333334,0,0,0.013020833333333334,26.184895833333336,0)" xlink:href="#P"/></g><use transform="matrix(0.013020833333333334,0,0,0.013020833333333334,0,0)" xlink:href="#v" id="o"/><path d="M67 279c166-379 230-627 230-886 0-300-86-663-230-974h278c151 241 258 644 258 974 0 302-90 608-258 886H67" id="Q"/><g id="p"><use transform="matrix(0.013020833333333334,0,0,0.013020833333333334,0,0)" xlink:href="#D"/><use transform="matrix(0.013020833333333334,0,0,0.013020833333333334,17.278645833333336,0)" xlink:href="#P"/><use transform="matrix(0.013020833333333334,0,0,0.013020833333333334,36.458333333333336,0)" xlink:href="#Q"/></g><g id="q"><use transform="matrix(0.013020833333333334,0,0,0.013020833333333334,0,0)" xlink:href="#N"/><use transform="matrix(0.013020833333333334,0,0,0.013020833333333334,10.533854166666668,0)" xlink:href="#D"/><use transform="matrix(0.013020833333333334,0,0,0.013020833333333334,27.8125,0)" xlink:href="#P"/><use transform="matrix(0.013020833333333334,0,0,0.013020833333333334,46.9921875,0)" xlink:href="#Q"/></g><path d="M690 20C314 20 94-261 94-744c0-482 221-766 596-766 376 0 597 284 597 766 0 483-219 764-597 764zm0-253c184 0 286-184 286-511 0-328-102-514-286-514-183 0-285 187-285 514s101 511 285 511" id="R"/><path d="M119 395l88-620h300L323 395H119" id="S"/><g id="r"><use transform="matrix(0.01953125,0,0,0.01953125,0,0)" xlink:href="#N"/><use transform="matrix(0.01953125,0,0,0.01953125,15.078125,0)" xlink:href="#R"/><use transform="matrix(0.01953125,0,0,0.01953125,40.87890625,0)" xlink:href="#S"/><use transform="matrix(0.01953125,0,0,0.01953125,54.23828125,0)" xlink:href="#w"/><use transform="matrix(0.01953125,0,0,0.01953125,85.44921875,0)" xlink:href="#Q"/></g><path d="M749-1490V0H444v-1221h-10L93-980v-279l329-231h327" id="T"/><g id="s"><use transform="matrix(0.01953125,0,0,0.01953125,0,0)" xlink:href="#N"/><use transform="matrix(0.01953125,0,0,0.01953125,15.078125,0)" xlink:href="#T"/><use transform="matrix(0.01953125,0,0,0.01953125,32.32421875,0)" xlink:href="#S"/><use transform="matrix(0.01953125,0,0,0.01953125,42.0703125,0)" xlink:href="#T"/><use transform="matrix(0.01953125,0,0,0.01953125,60.0390625,0)" xlink:href="#Q"/></g></defs></g></svg>